<svg width="154" height="287" viewBox="0 0 154 287" fill="none" xmlns="http://www.w3.org/2000/svg">
<path d="M146.182 273.048C142.386 273.048 139.31 276.126 139.31 279.92C139.31 283.715 142.386 286.792 146.182 286.792C149.976 286.792 153.052 283.715 153.052 279.92C153.052 276.126 149.976 273.048 146.182 273.048Z" fill="black"/>
<path d="M29.724 1.17071L20.0267 80.3387L10.052 4.80506e-05H0V123.488H10.208V85.08L14.9347 123.488H24.9867L29.7147 85.0747V123.488H39.9227V4.80506e-05H29.868L29.724 1.17071Z" fill="black"/>
<path d="M109.477 123.488V0.000292191H99.2693V123.488H100.603H109.477Z" fill="black"/>
<path d="M4.34961 162.13V172.338H14.7576V285.468H24.9656V172.337L35.3736 172.338V162.13H34.0403H4.34961Z" fill="black"/>
<path d="M92.605 166.691C92.6063 166.689 92.6076 166.689 92.609 166.687L92.613 166.683L92.605 166.691Z" fill="black"/>
<path d="M118.343 256.356V256.357C118.343 256.358 118.343 256.36 118.345 256.361L118.343 256.356Z" fill="black"/>
<path d="M116.712 166.55L116.7 166.54C115.225 165.226 113.546 164.218 111.606 163.559C109.665 162.899 107.477 162.583 104.954 162.583C102.514 162.586 100.001 163.062 97.925 163.696L97.9116 163.7L97.8956 163.707C95.941 164.359 94.1236 165.344 92.609 166.688C91.225 167.906 90.101 169.53 89.281 171.163L89.269 171.187L89.2596 171.207C88.3996 173.11 88.085 175.255 88.0836 177.491C88.0836 179.394 88.0676 181.254 88.0676 183.067C88.069 186.691 88.1316 190.13 88.5476 193.35L88.549 193.355C89.1583 197.928 90.0716 202.343 91.137 206.311C91.1383 206.314 91.1396 206.316 91.1396 206.32C91.1423 206.33 91.1436 206.338 91.1463 206.347C92.069 210.179 93.293 213.848 94.6703 217.215C96.0303 220.542 98.745 227.027 98.745 227.028L98.7503 227.04C100.076 230.128 101.128 233.275 102.492 236.77C104.122 241.362 105.462 246.575 106.509 252.246L106.512 252.26L106.516 252.28C107.693 257.87 108.146 264.576 108.145 272.218C108.145 273.096 108.044 273.862 107.832 274.528C107.618 275.196 107.301 275.77 106.824 276.308L106.797 276.339L106.768 276.376C106.472 276.764 105.884 277.154 105.068 277.418C104.258 277.684 103.252 277.824 102.24 277.823C101.226 277.824 100.221 277.686 99.385 277.415C98.5636 277.154 97.9263 276.768 97.5343 276.339C96.6743 275.208 96.1863 273.887 96.1823 272.218V246.75H85.6716V272.218C85.6703 274.487 86.0783 276.526 86.8543 278.326C87.629 280.127 88.7636 281.679 90.1636 282.994L90.173 283.002L90.1916 283.019C91.6663 284.332 93.3463 285.34 95.2863 285.999C97.2263 286.66 99.413 286.975 101.937 286.975C104.461 286.974 106.849 286.663 108.966 286.012L109.028 285.991L109.086 285.967C110.98 285.179 112.738 284.226 114.22 283.075L114.284 283.024L114.344 282.966C115.629 281.682 116.796 280.188 117.63 278.351C118.485 276.476 118.808 274.452 118.806 272.218C118.806 270.259 118.824 268.364 118.824 266.532C118.822 262.878 118.758 259.479 118.344 256.356C117.732 251.615 116.812 247.331 115.744 243.363C114.822 239.382 113.597 235.707 112.222 232.346L112.214 232.327L112.213 232.324C111.321 230.24 110.582 228.32 109.838 226.092L109.812 226.012L109.776 225.936C107.842 221.922 106.048 217.439 104.401 212.794C102.77 208.199 101.428 202.986 100.382 197.311L100.378 197.294L100.376 197.279C99.1983 191.688 98.7436 184.98 98.745 177.491C98.745 176.53 98.8503 175.723 99.061 175.068C99.2716 174.411 99.5716 173.903 100.014 173.458L100.073 173.398L100.124 173.332C100.436 172.923 101.052 172.496 101.866 172.202C102.678 171.904 103.669 171.735 104.652 171.736C105.634 171.735 106.626 171.903 107.464 172.204C108.302 172.503 108.978 172.936 109.385 173.398C110.242 174.39 110.856 175.704 110.861 177.491V202.808H121.221V201.475V177.491C121.233 172.952 119.557 169.212 116.729 166.566L116.712 166.55Z" fill="black"/>
</svg>
