<svg width="22" height="22" viewBox="0 0 22 22" fill="none" xmlns="http://www.w3.org/2000/svg">
<path d="M18.1176 1.50983H3.88231C2.57199 1.50983 1.50977 2.57205 1.50977 3.88238V18.1177C1.50977 19.428 2.57199 20.4902 3.88231 20.4902H18.1176C19.4279 20.4902 20.4902 19.428 20.4902 18.1177V3.88238C20.4902 2.57205 19.4279 1.50983 18.1176 1.50983Z" stroke="black" stroke-linecap="round" stroke-linejoin="round"/>
<path d="M6.25488 9.81372V15.7451" stroke="black" stroke-linecap="round" stroke-linejoin="round"/>
<path d="M6.25488 6.25488V6.26621" stroke="black" stroke-linecap="round" stroke-linejoin="round"/>
<path d="M11 15.7451V9.81372" stroke="black" stroke-linecap="round" stroke-linejoin="round"/>
<path d="M15.7451 15.7451V12.1863C15.7451 11.557 15.4951 10.9536 15.0502 10.5086C14.6053 10.0637 14.0018 9.81372 13.3725 9.81372C12.7433 9.81372 12.1398 10.0637 11.6949 10.5086C11.25 10.9536 11 11.557 11 12.1863" stroke="black" stroke-linecap="round" stroke-linejoin="round"/>
</svg>
