<svg width="16" height="20" viewBox="0 0 16 20" fill="none" xmlns="http://www.w3.org/2000/svg">
<path d="M7.99872 10.093C9.52813 10.093 10.768 8.90575 10.768 7.44115C10.768 5.97654 9.52813 4.78925 7.99872 4.78925C6.46932 4.78925 5.22949 5.97654 5.22949 7.44115C5.22949 8.90575 6.46932 10.093 7.99872 10.093Z" stroke="black" stroke-linecap="round" stroke-linejoin="round"/>
<path d="M13.0911 14.2985L9.2724 18.4303C8.93489 18.7951 8.47733 19 8.00025 19C7.52318 19 7.06562 18.7951 6.72811 18.4303L2.90851 14.2985C1.90161 13.2091 1.21591 11.821 0.938127 10.3098C0.660343 8.7987 0.802949 7.23237 1.34791 5.80892C1.89287 4.38547 2.81571 3.16884 3.99974 2.31286C5.18376 1.45688 6.5758 1 7.9998 1C9.42381 1 10.8158 1.45688 11.9999 2.31286C13.1839 3.16884 14.1067 4.38547 14.6517 5.80892C15.1967 7.23237 15.3393 8.7987 15.0615 10.3098C14.7837 11.821 14.098 13.2091 13.0911 14.2985V14.2985Z" stroke="black" stroke-linecap="round" stroke-linejoin="round"/>
</svg>
